<mxfile host="app.diagrams.net" modified="2023-10-03T21:50:44.626Z" agent="Mozilla/5.0 (Windows NT 10.0; Win64; x64) AppleWebKit/537.36 (KHTML, like Gecko) Chrome/117.0.0.0 Safari/537.36" etag="xZgz9OWgX77f4JXu4u6k" version="21.8.0" type="device">
  <diagram name="PÃ¡gina-1" id="zTQp2jArxp2jAcjbYC5B">
    <mxGraphModel dx="1237" dy="490" grid="1" gridSize="10" guides="1" tooltips="1" connect="1" arrows="1" fold="1" page="1" pageScale="1" pageWidth="827" pageHeight="1169" math="0" shadow="0">
      <root>
        <mxCell id="0" />
        <mxCell id="1" parent="0" />
        <mxCell id="57EPswCf4CEaE4-7sunL-1" value="Vendedor" style="swimlane;fontStyle=0;childLayout=stackLayout;horizontal=1;startSize=26;fillColor=none;horizontalStack=0;resizeParent=1;resizeParentMax=0;resizeLast=0;collapsible=1;marginBottom=0;whiteSpace=wrap;html=1;" vertex="1" parent="1">
          <mxGeometry x="90" y="141" width="140" height="130" as="geometry">
            <mxRectangle x="150" y="110" width="80" height="30" as="alternateBounds" />
          </mxGeometry>
        </mxCell>
        <mxCell id="57EPswCf4CEaE4-7sunL-2" value="&amp;lt;&amp;lt;iod&amp;gt;&amp;gt; id : Integer" style="text;strokeColor=none;fillColor=none;align=left;verticalAlign=top;spacingLeft=4;spacingRight=4;overflow=hidden;rotatable=0;points=[[0,0.5],[1,0.5]];portConstraint=eastwest;whiteSpace=wrap;html=1;" vertex="1" parent="57EPswCf4CEaE4-7sunL-1">
          <mxGeometry y="26" width="140" height="26" as="geometry" />
        </mxCell>
        <mxCell id="57EPswCf4CEaE4-7sunL-3" value="+ nome : String" style="text;strokeColor=none;fillColor=none;align=left;verticalAlign=top;spacingLeft=4;spacingRight=4;overflow=hidden;rotatable=0;points=[[0,0.5],[1,0.5]];portConstraint=eastwest;whiteSpace=wrap;html=1;" vertex="1" parent="57EPswCf4CEaE4-7sunL-1">
          <mxGeometry y="52" width="140" height="26" as="geometry" />
        </mxCell>
        <mxCell id="57EPswCf4CEaE4-7sunL-5" value="+ email : String" style="text;strokeColor=none;fillColor=none;align=left;verticalAlign=top;spacingLeft=4;spacingRight=4;overflow=hidden;rotatable=0;points=[[0,0.5],[1,0.5]];portConstraint=eastwest;whiteSpace=wrap;html=1;" vertex="1" parent="57EPswCf4CEaE4-7sunL-1">
          <mxGeometry y="78" width="140" height="26" as="geometry" />
        </mxCell>
        <mxCell id="57EPswCf4CEaE4-7sunL-4" value="+ salarioBase: Double" style="text;strokeColor=none;fillColor=none;align=left;verticalAlign=top;spacingLeft=4;spacingRight=4;overflow=hidden;rotatable=0;points=[[0,0.5],[1,0.5]];portConstraint=eastwest;whiteSpace=wrap;html=1;" vertex="1" parent="57EPswCf4CEaE4-7sunL-1">
          <mxGeometry y="104" width="140" height="26" as="geometry" />
        </mxCell>
        <mxCell id="57EPswCf4CEaE4-7sunL-6" value="Departamento" style="swimlane;fontStyle=0;childLayout=stackLayout;horizontal=1;startSize=26;fillColor=none;horizontalStack=0;resizeParent=1;resizeParentMax=0;resizeLast=0;collapsible=1;marginBottom=0;whiteSpace=wrap;html=1;" vertex="1" parent="1">
          <mxGeometry x="740" y="167" width="140" height="78" as="geometry">
            <mxRectangle x="150" y="110" width="80" height="30" as="alternateBounds" />
          </mxGeometry>
        </mxCell>
        <mxCell id="57EPswCf4CEaE4-7sunL-9" value="&amp;lt;&amp;lt;oid&amp;gt;&amp;gt; id : Integer" style="text;strokeColor=none;fillColor=none;align=left;verticalAlign=top;spacingLeft=4;spacingRight=4;overflow=hidden;rotatable=0;points=[[0,0.5],[1,0.5]];portConstraint=eastwest;whiteSpace=wrap;html=1;" vertex="1" parent="57EPswCf4CEaE4-7sunL-6">
          <mxGeometry y="26" width="140" height="26" as="geometry" />
        </mxCell>
        <mxCell id="57EPswCf4CEaE4-7sunL-7" value="+ nome: String" style="text;strokeColor=none;fillColor=none;align=left;verticalAlign=top;spacingLeft=4;spacingRight=4;overflow=hidden;rotatable=0;points=[[0,0.5],[1,0.5]];portConstraint=eastwest;whiteSpace=wrap;html=1;" vertex="1" parent="57EPswCf4CEaE4-7sunL-6">
          <mxGeometry y="52" width="140" height="26" as="geometry" />
        </mxCell>
        <mxCell id="57EPswCf4CEaE4-7sunL-13" value="vendedor" style="text;strokeColor=none;align=center;fillColor=none;html=1;verticalAlign=middle;whiteSpace=wrap;rounded=0;" vertex="1" parent="1">
          <mxGeometry x="230" y="210" width="60" height="30" as="geometry" />
        </mxCell>
        <mxCell id="57EPswCf4CEaE4-7sunL-14" value="1" style="text;strokeColor=none;align=center;fillColor=none;html=1;verticalAlign=middle;whiteSpace=wrap;rounded=0;" vertex="1" parent="1">
          <mxGeometry x="220" y="180" width="60" height="30" as="geometry" />
        </mxCell>
        <mxCell id="57EPswCf4CEaE4-7sunL-15" value="departamento" style="text;strokeColor=none;align=center;fillColor=none;html=1;verticalAlign=middle;whiteSpace=wrap;rounded=0;" vertex="1" parent="1">
          <mxGeometry x="670" y="200" width="60" height="30" as="geometry" />
        </mxCell>
        <mxCell id="57EPswCf4CEaE4-7sunL-16" value="1" style="text;strokeColor=none;align=center;fillColor=none;html=1;verticalAlign=middle;whiteSpace=wrap;rounded=0;" vertex="1" parent="1">
          <mxGeometry x="690" y="180" width="60" height="30" as="geometry" />
        </mxCell>
        <mxCell id="57EPswCf4CEaE4-7sunL-18" value="Contratacao" style="swimlane;fontStyle=0;childLayout=stackLayout;horizontal=1;startSize=26;fillColor=none;horizontalStack=0;resizeParent=1;resizeParentMax=0;resizeLast=0;collapsible=1;marginBottom=0;whiteSpace=wrap;html=1;" vertex="1" parent="1">
          <mxGeometry x="400" y="167" width="140" height="104" as="geometry">
            <mxRectangle x="150" y="110" width="80" height="30" as="alternateBounds" />
          </mxGeometry>
        </mxCell>
        <mxCell id="57EPswCf4CEaE4-7sunL-20" value="&amp;lt;&amp;lt;iod&amp;gt;&amp;gt; id : Integer" style="text;strokeColor=none;fillColor=none;align=left;verticalAlign=top;spacingLeft=4;spacingRight=4;overflow=hidden;rotatable=0;points=[[0,0.5],[1,0.5]];portConstraint=eastwest;whiteSpace=wrap;html=1;" vertex="1" parent="57EPswCf4CEaE4-7sunL-18">
          <mxGeometry y="26" width="140" height="26" as="geometry" />
        </mxCell>
        <mxCell id="57EPswCf4CEaE4-7sunL-63" value="+ dataInicio : Date" style="text;strokeColor=none;fillColor=none;align=left;verticalAlign=top;spacingLeft=4;spacingRight=4;overflow=hidden;rotatable=0;points=[[0,0.5],[1,0.5]];portConstraint=eastwest;whiteSpace=wrap;html=1;" vertex="1" parent="57EPswCf4CEaE4-7sunL-18">
          <mxGeometry y="52" width="140" height="26" as="geometry" />
        </mxCell>
        <mxCell id="57EPswCf4CEaE4-7sunL-21" value="+ dataFim : Date" style="text;strokeColor=none;fillColor=none;align=left;verticalAlign=top;spacingLeft=4;spacingRight=4;overflow=hidden;rotatable=0;points=[[0,0.5],[1,0.5]];portConstraint=eastwest;whiteSpace=wrap;html=1;" vertex="1" parent="57EPswCf4CEaE4-7sunL-18">
          <mxGeometry y="78" width="140" height="26" as="geometry" />
        </mxCell>
        <mxCell id="57EPswCf4CEaE4-7sunL-22" value="Venda" style="swimlane;fontStyle=0;childLayout=stackLayout;horizontal=1;startSize=26;fillColor=none;horizontalStack=0;resizeParent=1;resizeParentMax=0;resizeLast=0;collapsible=1;marginBottom=0;whiteSpace=wrap;html=1;" vertex="1" parent="1">
          <mxGeometry x="90" y="360" width="140" height="104" as="geometry">
            <mxRectangle x="150" y="110" width="80" height="30" as="alternateBounds" />
          </mxGeometry>
        </mxCell>
        <mxCell id="57EPswCf4CEaE4-7sunL-23" value="&amp;lt;&amp;lt;oid&amp;gt;&amp;gt; id : Integer" style="text;strokeColor=none;fillColor=none;align=left;verticalAlign=top;spacingLeft=4;spacingRight=4;overflow=hidden;rotatable=0;points=[[0,0.5],[1,0.5]];portConstraint=eastwest;whiteSpace=wrap;html=1;" vertex="1" parent="57EPswCf4CEaE4-7sunL-22">
          <mxGeometry y="26" width="140" height="26" as="geometry" />
        </mxCell>
        <mxCell id="57EPswCf4CEaE4-7sunL-24" value="+ data : Date" style="text;strokeColor=none;fillColor=none;align=left;verticalAlign=top;spacingLeft=4;spacingRight=4;overflow=hidden;rotatable=0;points=[[0,0.5],[1,0.5]];portConstraint=eastwest;whiteSpace=wrap;html=1;" vertex="1" parent="57EPswCf4CEaE4-7sunL-22">
          <mxGeometry y="52" width="140" height="26" as="geometry" />
        </mxCell>
        <mxCell id="57EPswCf4CEaE4-7sunL-25" value="+ status : StatusVenda" style="text;strokeColor=none;fillColor=none;align=left;verticalAlign=top;spacingLeft=4;spacingRight=4;overflow=hidden;rotatable=0;points=[[0,0.5],[1,0.5]];portConstraint=eastwest;whiteSpace=wrap;html=1;" vertex="1" parent="57EPswCf4CEaE4-7sunL-22">
          <mxGeometry y="78" width="140" height="26" as="geometry" />
        </mxCell>
        <mxCell id="57EPswCf4CEaE4-7sunL-26" value="&amp;lt;&amp;lt;enum&amp;gt;&amp;gt;&lt;br&gt;StatusVenda" style="swimlane;fontStyle=0;childLayout=stackLayout;horizontal=1;startSize=30;fillColor=none;horizontalStack=0;resizeParent=1;resizeParentMax=0;resizeLast=0;collapsible=1;marginBottom=0;whiteSpace=wrap;html=1;" vertex="1" parent="1">
          <mxGeometry x="870" y="464" width="140" height="84" as="geometry">
            <mxRectangle x="150" y="110" width="80" height="30" as="alternateBounds" />
          </mxGeometry>
        </mxCell>
        <mxCell id="57EPswCf4CEaE4-7sunL-29" value="PENDENTE&lt;br&gt;FATURADA&lt;br&gt;CANCELADA" style="text;strokeColor=none;fillColor=none;align=left;verticalAlign=top;spacingLeft=4;spacingRight=4;overflow=hidden;rotatable=0;points=[[0,0.5],[1,0.5]];portConstraint=eastwest;whiteSpace=wrap;html=1;" vertex="1" parent="57EPswCf4CEaE4-7sunL-26">
          <mxGeometry y="30" width="140" height="54" as="geometry" />
        </mxCell>
        <mxCell id="57EPswCf4CEaE4-7sunL-30" value="ItemDeVenda" style="swimlane;fontStyle=0;childLayout=stackLayout;horizontal=1;startSize=26;fillColor=none;horizontalStack=0;resizeParent=1;resizeParentMax=0;resizeLast=0;collapsible=1;marginBottom=0;whiteSpace=wrap;html=1;" vertex="1" parent="1">
          <mxGeometry x="314" y="490" width="140" height="78" as="geometry">
            <mxRectangle x="150" y="110" width="80" height="30" as="alternateBounds" />
          </mxGeometry>
        </mxCell>
        <mxCell id="57EPswCf4CEaE4-7sunL-50" value="" style="endArrow=none;dashed=1;html=1;dashPattern=1 3;strokeWidth=2;rounded=0;exitX=0.5;exitY=0;exitDx=0;exitDy=0;" edge="1" parent="57EPswCf4CEaE4-7sunL-30" source="57EPswCf4CEaE4-7sunL-30">
          <mxGeometry width="50" height="50" relative="1" as="geometry">
            <mxPoint x="60" y="50" as="sourcePoint" />
            <mxPoint x="70" y="-70" as="targetPoint" />
          </mxGeometry>
        </mxCell>
        <mxCell id="57EPswCf4CEaE4-7sunL-31" value="&amp;lt;&amp;lt;oid&amp;gt;&amp;gt; id : Integer" style="text;strokeColor=none;fillColor=none;align=left;verticalAlign=top;spacingLeft=4;spacingRight=4;overflow=hidden;rotatable=0;points=[[0,0.5],[1,0.5]];portConstraint=eastwest;whiteSpace=wrap;html=1;" vertex="1" parent="57EPswCf4CEaE4-7sunL-30">
          <mxGeometry y="26" width="140" height="26" as="geometry" />
        </mxCell>
        <mxCell id="57EPswCf4CEaE4-7sunL-32" value="+ quantidade : Integer" style="text;strokeColor=none;fillColor=none;align=left;verticalAlign=top;spacingLeft=4;spacingRight=4;overflow=hidden;rotatable=0;points=[[0,0.5],[1,0.5]];portConstraint=eastwest;whiteSpace=wrap;html=1;" vertex="1" parent="57EPswCf4CEaE4-7sunL-30">
          <mxGeometry y="52" width="140" height="26" as="geometry" />
        </mxCell>
        <mxCell id="57EPswCf4CEaE4-7sunL-34" value="" style="endArrow=none;html=1;rounded=0;entryX=0.021;entryY=0.952;entryDx=0;entryDy=0;entryPerimeter=0;exitX=0.992;exitY=0.139;exitDx=0;exitDy=0;exitPerimeter=0;" edge="1" parent="1" source="57EPswCf4CEaE4-7sunL-24" target="57EPswCf4CEaE4-7sunL-47">
          <mxGeometry width="50" height="50" relative="1" as="geometry">
            <mxPoint x="240" y="440" as="sourcePoint" />
            <mxPoint x="280" y="400" as="targetPoint" />
          </mxGeometry>
        </mxCell>
        <mxCell id="57EPswCf4CEaE4-7sunL-36" value="1..*" style="text;strokeColor=none;align=center;fillColor=none;html=1;verticalAlign=middle;whiteSpace=wrap;rounded=0;" vertex="1" parent="1">
          <mxGeometry x="220" y="380" width="60" height="30" as="geometry" />
        </mxCell>
        <mxCell id="57EPswCf4CEaE4-7sunL-37" value="produtos" style="text;strokeColor=none;align=center;fillColor=none;html=1;verticalAlign=middle;whiteSpace=wrap;rounded=0;" vertex="1" parent="1">
          <mxGeometry x="480" y="420" width="60" height="30" as="geometry" />
        </mxCell>
        <mxCell id="57EPswCf4CEaE4-7sunL-38" value="1..*" style="text;strokeColor=none;align=center;fillColor=none;html=1;verticalAlign=middle;whiteSpace=wrap;rounded=0;" vertex="1" parent="1">
          <mxGeometry x="480" y="390" width="60" height="30" as="geometry" />
        </mxCell>
        <mxCell id="57EPswCf4CEaE4-7sunL-45" value="vendas" style="text;strokeColor=none;align=center;fillColor=none;html=1;verticalAlign=middle;whiteSpace=wrap;rounded=0;" vertex="1" parent="1">
          <mxGeometry x="230" y="420" width="60" height="30" as="geometry" />
        </mxCell>
        <mxCell id="57EPswCf4CEaE4-7sunL-46" value="Produto" style="swimlane;fontStyle=0;childLayout=stackLayout;horizontal=1;startSize=26;fillColor=none;horizontalStack=0;resizeParent=1;resizeParentMax=0;resizeLast=0;collapsible=1;marginBottom=0;whiteSpace=wrap;html=1;" vertex="1" parent="1">
          <mxGeometry x="540" y="366" width="140" height="104" as="geometry">
            <mxRectangle x="150" y="110" width="80" height="30" as="alternateBounds" />
          </mxGeometry>
        </mxCell>
        <mxCell id="57EPswCf4CEaE4-7sunL-47" value="&amp;lt;&amp;lt;oid&amp;gt;&amp;gt; id : Integer" style="text;strokeColor=none;fillColor=none;align=left;verticalAlign=top;spacingLeft=4;spacingRight=4;overflow=hidden;rotatable=0;points=[[0,0.5],[1,0.5]];portConstraint=eastwest;whiteSpace=wrap;html=1;" vertex="1" parent="57EPswCf4CEaE4-7sunL-46">
          <mxGeometry y="26" width="140" height="26" as="geometry" />
        </mxCell>
        <mxCell id="57EPswCf4CEaE4-7sunL-48" value="+ nome : String" style="text;strokeColor=none;fillColor=none;align=left;verticalAlign=top;spacingLeft=4;spacingRight=4;overflow=hidden;rotatable=0;points=[[0,0.5],[1,0.5]];portConstraint=eastwest;whiteSpace=wrap;html=1;" vertex="1" parent="57EPswCf4CEaE4-7sunL-46">
          <mxGeometry y="52" width="140" height="26" as="geometry" />
        </mxCell>
        <mxCell id="57EPswCf4CEaE4-7sunL-49" value="+ preco : Double" style="text;strokeColor=none;fillColor=none;align=left;verticalAlign=top;spacingLeft=4;spacingRight=4;overflow=hidden;rotatable=0;points=[[0,0.5],[1,0.5]];portConstraint=eastwest;whiteSpace=wrap;html=1;" vertex="1" parent="57EPswCf4CEaE4-7sunL-46">
          <mxGeometry y="78" width="140" height="26" as="geometry" />
        </mxCell>
        <mxCell id="57EPswCf4CEaE4-7sunL-52" value="" style="endArrow=none;html=1;rounded=0;entryX=0;entryY=0.5;entryDx=0;entryDy=0;" edge="1" parent="1" source="57EPswCf4CEaE4-7sunL-3" target="57EPswCf4CEaE4-7sunL-20">
          <mxGeometry width="50" height="50" relative="1" as="geometry">
            <mxPoint x="230" y="210" as="sourcePoint" />
            <mxPoint x="260" y="180" as="targetPoint" />
          </mxGeometry>
        </mxCell>
        <mxCell id="57EPswCf4CEaE4-7sunL-53" value="" style="endArrow=none;html=1;rounded=0;exitX=1;exitY=0.5;exitDx=0;exitDy=0;" edge="1" parent="1" source="57EPswCf4CEaE4-7sunL-20" target="57EPswCf4CEaE4-7sunL-9">
          <mxGeometry width="50" height="50" relative="1" as="geometry">
            <mxPoint x="520" y="230" as="sourcePoint" />
            <mxPoint x="570" y="180" as="targetPoint" />
          </mxGeometry>
        </mxCell>
        <mxCell id="57EPswCf4CEaE4-7sunL-55" value="1..*" style="text;strokeColor=none;align=center;fillColor=none;html=1;verticalAlign=middle;whiteSpace=wrap;rounded=0;" vertex="1" parent="1">
          <mxGeometry x="354" y="180" width="60" height="30" as="geometry" />
        </mxCell>
        <mxCell id="57EPswCf4CEaE4-7sunL-56" value="contratacoes" style="text;strokeColor=none;align=center;fillColor=none;html=1;verticalAlign=middle;whiteSpace=wrap;rounded=0;" vertex="1" parent="1">
          <mxGeometry x="330" y="210" width="60" height="30" as="geometry" />
        </mxCell>
        <mxCell id="57EPswCf4CEaE4-7sunL-58" value="0..*" style="text;strokeColor=none;align=center;fillColor=none;html=1;verticalAlign=middle;whiteSpace=wrap;rounded=0;" vertex="1" parent="1">
          <mxGeometry x="540" y="180" width="60" height="30" as="geometry" />
        </mxCell>
        <mxCell id="57EPswCf4CEaE4-7sunL-59" value="contratacoes" style="text;strokeColor=none;align=center;fillColor=none;html=1;verticalAlign=middle;whiteSpace=wrap;rounded=0;" vertex="1" parent="1">
          <mxGeometry x="550" y="200" width="60" height="30" as="geometry" />
        </mxCell>
        <mxCell id="57EPswCf4CEaE4-7sunL-62" value="" style="endArrow=none;html=1;rounded=0;exitX=0.5;exitY=0;exitDx=0;exitDy=0;" edge="1" parent="1" source="57EPswCf4CEaE4-7sunL-22" target="57EPswCf4CEaE4-7sunL-4">
          <mxGeometry width="50" height="50" relative="1" as="geometry">
            <mxPoint x="140" y="370" as="sourcePoint" />
            <mxPoint x="190" y="320" as="targetPoint" />
          </mxGeometry>
        </mxCell>
      </root>
    </mxGraphModel>
  </diagram>
</mxfile>
